<?xml version="1.0" encoding="UTF-8"?>
<!DOCTYPE svg PUBLIC "-//W3C//DTD SVG 1.1//EN" "http://www.w3.org/Graphics/SVG/1.1/DTD/svg11.dtd">
<svg version="1.1" xmlns="http://www.w3.org/2000/svg" xmlns:xlink="http://www.w3.org/1999/xlink" x="0" y="0" width="20" height="20" viewBox="0, 0, 20, 20">
  <g id="Layer_1">
    <path d="M6.283,18.538 C13.83,18.538 17.959,12.279 17.959,6.861 C17.959,6.685 17.959,6.509 17.951,6.333 C18.751,5.756 19.448,5.028 20,4.204 C19.264,4.532 18.471,4.748 17.639,4.852 C18.487,4.348 19.136,3.54 19.448,2.579 C18.655,3.051 17.775,3.387 16.839,3.572 C16.086,2.771 15.022,2.275 13.846,2.275 C11.581,2.275 9.74,4.116 9.74,6.381 C9.74,6.701 9.78,7.013 9.844,7.317 C6.435,7.149 3.409,5.508 1.385,3.027 C1.032,3.636 0.832,4.34 0.832,5.092 C0.832,6.517 1.561,7.773 2.657,8.509 C1.985,8.485 1.353,8.301 0.8,7.997 C0.8,8.013 0.8,8.029 0.8,8.053 C0.8,10.038 2.217,11.703 4.09,12.079 C3.746,12.175 3.385,12.223 3.009,12.223 C2.745,12.223 2.489,12.199 2.241,12.151 C2.761,13.784 4.282,14.968 6.074,15 C4.666,16.105 2.897,16.761 0.976,16.761 C0.648,16.761 0.32,16.745 0,16.705 C1.809,17.857 3.97,18.538 6.283,18.538" fill="#fff"/>
  </g>
</svg>
